<svg width="24" height="24" viewBox="0 0 24 24" fill="none" xmlns="http://www.w3.org/2000/svg">
<path fill-rule="evenodd" clip-rule="evenodd" d="M20.4255 5.766C20.2762 5.29649 20.0473 4.85609 19.749 4.464L21.78 2.424L20.856 1.5L18.816 3.531C18.4239 3.2323 17.9835 3.00299 17.514 2.853C16.4651 2.50443 15.3259 2.54436 14.304 2.9655C13.7474 3.19572 13.2421 3.53428 12.8175 3.9615L10.5 6.288L16.9905 12.78L19.3185 10.4625C19.749 10.032 20.0805 9.5355 20.313 8.9745C20.734 7.95256 20.7739 6.8134 20.4255 5.7645V5.766ZM19.092 8.472C18.929 8.8679 18.6889 9.22739 18.3855 9.5295L16.9905 10.9245L12.3555 6.2895L13.7505 4.8945C14.052 4.59077 14.411 4.35009 14.8065 4.1865C15.2073 4.01576 15.6387 3.92863 16.0743 3.93043C16.51 3.93224 16.9406 4.02295 17.34 4.197C17.736 4.368 18.081 4.6035 18.375 4.905C18.675 5.1975 18.912 5.544 19.083 5.94C19.2568 6.33915 19.3474 6.76956 19.3492 7.20492C19.351 7.64028 19.264 8.07143 19.0935 8.472H19.092ZM11.856 15.963L14.082 13.6455L13.158 12.7125L10.923 15.039L8.133 12.2505L10.3695 9.9225L9.4365 9L7.212 11.3175L6.288 10.395L3.9615 12.7125C3.53271 13.1396 3.19447 13.6487 2.967 14.2095C2.73528 14.765 2.61647 15.3611 2.6175 15.963C2.6175 16.461 2.6925 16.947 2.8425 17.418C3 17.883 3.2295 18.3135 3.531 18.711L1.5 20.751L2.4225 21.6735L4.4625 19.644C4.86 19.944 5.2905 20.1735 5.7555 20.331C6.2265 20.481 6.7125 20.556 7.2105 20.556C7.8195 20.556 8.4045 20.4405 8.9655 20.208C9.5325 19.9755 10.0305 19.644 10.4625 19.2135L12.78 16.8855L11.856 15.963V15.963ZM8.463 18.9975C8.06641 19.1615 7.64118 19.2452 7.212 19.2435C6.7605 19.2435 6.333 19.158 5.9295 18.9885C5.54075 18.8222 5.18625 18.5852 4.884 18.2895C4.58891 17.9871 4.35242 17.6326 4.1865 17.244C4.0157 16.8387 3.92895 16.4029 3.9315 15.963C3.92984 15.5321 4.01415 15.1052 4.1795 14.7072C4.34486 14.3093 4.58793 13.9483 4.8945 13.6455L6.2895 12.2505L10.9245 16.8855L9.5295 18.2805C9.22393 18.5865 8.86168 18.83 8.463 18.9975V18.9975Z" fill="#F7F7F7"/>
</svg>
