<svg width="24" height="24" viewBox="0 0 24 24" fill="none" xmlns="http://www.w3.org/2000/svg">
<path fill-rule="evenodd" clip-rule="evenodd" d="M6.69116 9.8912C6.82616 9.75637 7.00916 9.68063 7.19996 9.68063C7.39076 9.68063 7.57376 9.75637 7.70876 9.8912L12 14.1824L16.2912 9.8912C16.4276 9.76402 16.6082 9.69478 16.7947 9.69807C16.9812 9.70136 17.1592 9.77693 17.2911 9.90884C17.423 10.0408 17.4986 10.2187 17.5019 10.4053C17.5052 10.5918 17.4359 10.7723 17.3088 10.9088L12.5088 15.7088C12.3738 15.8436 12.1908 15.9194 12 15.9194C11.8092 15.9194 11.6262 15.8436 11.4912 15.7088L6.69116 10.9088C6.55633 10.7738 6.48059 10.5908 6.48059 10.4C6.48059 10.2092 6.55633 10.0262 6.69116 9.8912V9.8912Z" fill="#F7F7F7"/>
</svg>
