<svg width="392" height="96" viewBox="0 0 392 96" fill="none" xmlns="http://www.w3.org/2000/svg">
<path d="M269.069 36.3L285.969 32.675V47.35C285.969 50.8833 286.902 53.75 288.769 55.95C290.635 58.15 293.435 59.25 297.169 59.25C300.902 59.25 303.702 58.15 305.569 55.95C307.502 53.75 308.469 50.8833 308.469 47.35V32.675L325.369 36.3V48.55C325.369 54.4167 324.102 59.2833 321.569 63.15C319.102 66.95 315.735 69.7833 311.469 71.65C307.202 73.5167 302.435 74.45 297.169 74.45C291.902 74.45 287.135 73.5167 282.869 71.65C278.669 69.7833 275.302 66.95 272.769 63.15C270.302 59.2833 269.069 54.4167 269.069 48.55V36.3Z" fill="white"/>
<path d="M308.606 1.04999H325.369V23.425L308.606 6.04999V1.04999Z" fill="white"/>
<path d="M285.619 1.04999H268.856V23.3L285.619 6.17499V1.04999Z" fill="white"/>
<path d="M297.112 1.04999L325.5 31.3L297.112 25.8L268.725 31.3L297.112 1.04999Z" fill="#3ED84D"/>
<rect x="290.744" y="17.3" width="12.7375" height="30.75" fill="#3ED84D"/>
<path d="M290.744 47.05C290.744 47.8623 290.908 48.6667 291.229 49.4172C291.549 50.1678 292.018 50.8497 292.609 51.4241C293.2 51.9985 293.903 52.4542 294.675 52.7651C295.448 53.0759 296.276 53.2359 297.112 53.2359C297.949 53.2359 298.777 53.0759 299.55 52.7651C300.322 52.4542 301.024 51.9985 301.616 51.4241C302.207 50.8497 302.676 50.1678 302.996 49.4172C303.316 48.6667 303.481 47.8623 303.481 47.05L297.112 47.05L290.744 47.05Z" fill="#3ED84D"/>
<path d="M22.5 38.15L18.2 73.75H0.399994L11.7 0.25L41.6 42.85L71.4 0.25L82.8 73.75H64.9L60.7 38.15L41.6 67.25L22.5 38.15Z" fill="white"/>
<path d="M115.462 74.75C110.062 74.75 105.396 73.7833 101.462 71.85C97.5958 69.85 94.5958 67.05 92.4625 63.45C90.3292 59.85 89.2625 55.6167 89.2625 50.75C89.2625 43.2833 91.5625 37.4167 96.1625 33.15C100.762 28.8833 107.096 26.75 115.162 26.75C123.096 26.75 129.196 28.7833 133.462 32.85C137.796 36.9167 139.962 42.65 139.962 50.05C139.962 50.7833 139.962 51.4833 139.962 52.15C139.962 52.8167 139.929 53.4167 139.863 53.95H104.762C105.162 57.0833 106.262 59.5167 108.062 61.25C109.862 62.9833 112.229 63.85 115.162 63.85C120.496 63.85 124.296 61.85 126.562 57.85L140.162 61.15C135.296 70.2167 127.062 74.75 115.462 74.75ZM114.862 36.85C109.396 36.85 106.096 39.75 104.962 45.55H123.762C123.496 42.8833 122.562 40.7833 120.962 39.25C119.429 37.65 117.396 36.85 114.862 36.85Z" fill="white"/>
<path d="M172.787 74.75C167.387 74.75 162.72 73.7833 158.787 71.85C154.92 69.85 151.92 67.05 149.787 63.45C147.653 59.85 146.587 55.6167 146.587 50.75C146.587 43.2833 148.887 37.4167 153.487 33.15C158.087 28.8833 164.42 26.75 172.487 26.75C180.42 26.75 186.52 28.7833 190.787 32.85C195.12 36.9167 197.287 42.65 197.287 50.05C197.287 50.7833 197.287 51.4833 197.287 52.15C197.287 52.8167 197.253 53.4167 197.187 53.95H162.087C162.487 57.0833 163.587 59.5167 165.387 61.25C167.187 62.9833 169.553 63.85 172.487 63.85C177.82 63.85 181.62 61.85 183.887 57.85L197.487 61.15C192.62 70.2167 184.387 74.75 172.787 74.75ZM172.187 36.85C166.72 36.85 163.42 39.75 162.287 45.55H181.087C180.82 42.8833 179.887 40.7833 178.287 39.25C176.753 37.65 174.72 36.85 172.187 36.85Z" fill="white"/>
<path d="M201.211 27.75H209.311V11.75H223.911V27.75H232.011V40.25H223.911V73.75H209.311V40.25H201.211V27.75Z" fill="white"/>
<path d="M353.545 95.75H338.445V27.75H353.545V35.15C355.211 32.2833 357.345 30.0833 359.945 28.55C362.611 26.95 365.711 26.15 369.245 26.15C372.978 26.15 376.511 27.0833 379.845 28.95C383.178 30.75 385.878 33.4833 387.945 37.15C390.078 40.8167 391.145 45.35 391.145 50.75C391.145 56.15 390.078 60.6833 387.945 64.35C385.878 67.95 383.178 70.6833 379.845 72.55C376.511 74.4167 372.978 75.35 369.245 75.35C365.711 75.35 362.611 74.5833 359.945 73.05C357.345 71.45 355.211 69.2167 353.545 66.35V95.75ZM375.245 50.75C375.245 47.15 374.145 44.3833 371.945 42.45C369.811 40.5167 367.245 39.55 364.245 39.55C362.578 39.55 360.911 39.9833 359.245 40.85C357.578 41.65 356.211 42.8833 355.145 44.55C354.078 46.15 353.545 48.2167 353.545 50.75C353.545 53.2167 354.078 55.2833 355.145 56.95C356.211 58.6167 357.578 59.8833 359.245 60.75C360.911 61.55 362.578 61.95 364.245 61.95C367.245 61.95 369.811 60.9833 371.945 59.05C374.145 57.1167 375.245 54.35 375.245 50.75Z" fill="white"/>
</svg>
