<svg width="24" height="24" viewBox="0 0 24 24" fill="none" xmlns="http://www.w3.org/2000/svg">
<path d="M12.0001 3C16.0916 3 19.4081 6.31651 19.4081 10.408C19.4081 13.5384 17.2085 16.9499 12.8662 20.6789C12.6248 20.8864 12.3169 21.0003 11.9986 21C11.6803 20.9997 11.3727 20.8853 11.1316 20.6774L10.8444 20.4282C6.6944 16.7964 4.59204 13.4685 4.59204 10.408C4.59204 6.31651 7.90855 3 12.0001 3ZM12.0001 4.1397C10.3376 4.1397 8.74322 4.80011 7.56769 5.97564C6.39215 7.15118 5.73174 8.74556 5.73174 10.408C5.73174 13.0688 7.6677 16.1346 11.5928 19.5689L11.8762 19.8143C11.9107 19.8439 11.9546 19.8602 12.0001 19.8602C12.0455 19.8602 12.0894 19.8439 12.1239 19.8143C16.239 16.2797 18.2684 13.1319 18.2684 10.408C18.2684 9.58485 18.1062 8.76974 17.7912 8.00923C17.4762 7.24873 17.0145 6.55771 16.4324 5.97564C15.8504 5.39358 15.1594 4.93186 14.3988 4.61684C13.6383 4.30183 12.8232 4.1397 12.0001 4.1397V4.1397ZM12.0001 7.55878C12.7557 7.55878 13.4804 7.85897 14.0148 8.3933C14.5491 8.92764 14.8493 9.65235 14.8493 10.408C14.8493 11.1637 14.5491 11.8884 14.0148 12.4227C13.4804 12.9571 12.7557 13.2573 12.0001 13.2573C11.2444 13.2573 10.5197 12.9571 9.98534 12.4227C9.45101 11.8884 9.15082 11.1637 9.15082 10.408C9.15082 9.65235 9.45101 8.92764 9.98534 8.3933C10.5197 7.85897 11.2444 7.55878 12.0001 7.55878V7.55878ZM12.0001 8.69848C11.5467 8.69848 11.1118 8.87859 10.7912 9.19919C10.4706 9.51979 10.2905 9.95462 10.2905 10.408C10.2905 10.8614 10.4706 11.2962 10.7912 11.6168C11.1118 11.9374 11.5467 12.1176 12.0001 12.1176C12.4535 12.1176 12.8883 11.9374 13.2089 11.6168C13.5295 11.2962 13.7096 10.8614 13.7096 10.408C13.7096 9.95462 13.5295 9.51979 13.2089 9.19919C12.8883 8.87859 12.4535 8.69848 12.0001 8.69848V8.69848Z" fill="#F7F7F7"/>
</svg>
