<svg width="150" height="74" viewBox="0 0 150 74" fill="none" xmlns="http://www.w3.org/2000/svg">
<path d="M22.5 37.8999L18.2 73.4999H0.400002L11.7 -6.10352e-05L41.6 42.5999L71.4 -6.10352e-05L82.8 73.4999H64.9L60.7 37.8999L41.6 66.9999L22.5 37.8999Z" fill="white"/>
<path d="M92.9625 35.2499L109.863 31.6249V46.2999C109.863 49.8333 110.796 52.6999 112.662 54.8999C114.529 57.0999 117.329 58.1999 121.062 58.1999C124.796 58.1999 127.596 57.0999 129.463 54.8999C131.396 52.6999 132.363 49.8333 132.363 46.2999V31.6249L149.263 35.2499V47.4999C149.263 53.3666 147.996 58.2333 145.463 62.0999C142.996 65.8999 139.629 68.7333 135.363 70.5999C131.096 72.4666 126.329 73.3999 121.062 73.3999C115.796 73.3999 111.029 72.4666 106.763 70.5999C102.563 68.7333 99.1958 65.8999 96.6625 62.0999C94.1958 58.2333 92.9625 53.3666 92.9625 47.4999V35.2499Z" fill="white"/>
<path d="M132.5 -6.10352e-05H149.262V22.3749L132.5 4.99994V-6.10352e-05Z" fill="white"/>
<path d="M109.512 -6.10352e-05H92.75V22.2499L109.512 5.12494V-6.10352e-05Z" fill="white"/>
<path d="M121.006 -6.10352e-05L149.394 30.2499L121.006 24.7499L92.6187 30.2499L121.006 -6.10352e-05Z" fill="#3ED84D"/>
<rect x="114.638" y="16.2499" width="12.7375" height="30.75" fill="#3ED84D"/>
<path d="M114.638 45.9999C114.638 46.8123 114.802 47.6167 115.122 48.3672C115.442 49.1177 115.911 49.7996 116.503 50.3741C117.094 50.9485 117.796 51.4041 118.569 51.715C119.342 52.0259 120.17 52.1859 121.006 52.1859C121.843 52.1859 122.671 52.0259 123.443 51.715C124.216 51.4041 124.918 50.9485 125.51 50.3741C126.101 49.7996 126.57 49.1177 126.89 48.3672C127.21 47.6167 127.375 46.8123 127.375 45.9999L121.006 45.9999L114.638 45.9999Z" fill="#3ED84D"/>
</svg>
