<svg width="150" height="74" viewBox="0 0 150 74" fill="none" xmlns="http://www.w3.org/2000/svg">
<path d="M22.75 38.4L18.45 74H0.650002L11.95 0.5L41.85 43.1L71.65 0.5L83.05 74H65.15L60.95 38.4L41.85 67.5L22.75 38.4Z" fill="#020E2E"/>
<path d="M93.2125 35.75L110.113 32.125V46.8C110.113 50.3333 111.046 53.2 112.912 55.4C114.779 57.6 117.579 58.7 121.312 58.7C125.046 58.7 127.846 57.6 129.713 55.4C131.646 53.2 132.613 50.3333 132.613 46.8V32.125L149.513 35.75V48C149.513 53.8667 148.246 58.7333 145.713 62.6C143.246 66.4 139.879 69.2333 135.613 71.1C131.346 72.9667 126.579 73.9 121.312 73.9C116.046 73.9 111.279 72.9667 107.013 71.1C102.813 69.2333 99.4458 66.4 96.9125 62.6C94.4458 58.7333 93.2125 53.8667 93.2125 48V35.75Z" fill="#020E2E"/>
<path d="M132.75 0.5H149.512V22.875L132.75 5.5V0.5Z" fill="#182341"/>
<path d="M109.762 0.5H93V22.75L109.762 5.625V0.5Z" fill="#182341"/>
<path d="M121.256 0.5L149.644 30.75L121.256 25.25L92.8687 30.75L121.256 0.5Z" fill="#3ED84D"/>
<rect x="114.888" y="16.75" width="12.7375" height="30.75" fill="#3ED84D"/>
<path d="M115.07 47.5C115.07 48.3124 115.23 49.1167 115.541 49.8673C115.852 50.6178 116.308 51.2997 116.882 51.8741C117.457 52.4485 118.138 52.9042 118.889 53.2151C119.64 53.5259 120.444 53.6859 121.256 53.6859C122.069 53.6859 122.873 53.5259 123.624 53.2151C124.374 52.9042 125.056 52.4485 125.63 51.8741C126.205 51.2997 126.66 50.6178 126.971 49.8673C127.282 49.1167 127.442 48.3124 127.442 47.5L121.256 47.5L115.07 47.5Z" fill="#3ED84D"/>
</svg>
