<svg width="512" height="513" viewBox="0 0 512 513" fill="none" xmlns="http://www.w3.org/2000/svg">
<path d="M91.9146 167.93L73.8674 332.09H44.3672L73.8674 77L171.045 252.96L268.222 77L297.722 332.09H268.222L250.174 167.93L171.045 309.531L91.9146 167.93Z" fill="#F6F6F6"/>
<path d="M365.25 269.619C365.25 282.345 368.142 292.178 373.926 299.119C379.711 306.06 388.156 309.531 399.262 309.531C411.525 309.531 421.358 305.829 428.762 298.425C436.166 291.021 439.868 281.419 439.868 269.619V172.442H467.633V332.09H439.868V307.102C429.225 326.074 413.376 335.561 392.321 335.561C375.662 335.561 362.358 329.892 352.408 318.555C342.459 307.217 337.485 292.062 337.485 273.09V172.442H365.25V269.619Z" fill="#E8D190"/>
<path d="M362.361 402.571C371.137 430.417 359.388 447.054 342.755 447.054C329.238 447.054 319.54 431.991 326.266 402.571C344.242 323.939 332.123 248.108 342.755 248.108C353.387 248.108 338.267 326.123 362.361 402.571Z" fill="#E8D190"/>
<path d="M322.898 402.536C314.124 430.375 325.87 447.009 342.499 447.009C356.013 447.009 365.709 431.949 358.985 402.536C341.013 323.922 353.129 248.108 342.499 248.108C331.87 248.108 346.987 326.105 322.898 402.536Z" fill="#E8D190"/>
</svg>
