<svg width="24" height="24" viewBox="0 0 24 24" fill="none" xmlns="http://www.w3.org/2000/svg">
<path fill-rule="evenodd" clip-rule="evenodd" d="M17.3088 14.1088C17.1738 14.2436 16.9908 14.3194 16.8 14.3194C16.6092 14.3194 16.4262 14.2436 16.2912 14.1088L12 9.8176L7.70884 14.1088C7.57235 14.236 7.39183 14.3052 7.2053 14.3019C7.01877 14.2986 6.8408 14.2231 6.70888 14.0912C6.57697 13.9592 6.5014 13.7813 6.49811 13.5947C6.49482 13.4082 6.56406 13.2277 6.69124 13.0912L11.4912 8.2912C11.6262 8.15637 11.8092 8.08063 12 8.08063C12.1908 8.08063 12.3738 8.15637 12.5088 8.2912L17.3088 13.0912C17.4437 13.2262 17.5194 13.4092 17.5194 13.6C17.5194 13.7908 17.4437 13.9738 17.3088 14.1088V14.1088Z" fill="#F7F7F7"/>
</svg>
