<svg width="24" height="10" viewBox="0 0 24 10" fill="none" xmlns="http://www.w3.org/2000/svg">
<path fill-rule="evenodd" clip-rule="evenodd" d="M17.3001 7.9088C17.1651 8.04364 16.9821 8.11937 16.7913 8.11937C16.6005 8.11937 16.4175 8.04364 16.2825 7.9088L11.9913 3.6176L7.70005 7.9088C7.56356 8.03598 7.38304 8.10522 7.19651 8.10193C7.00998 8.09864 6.83201 8.02308 6.7001 7.89116C6.56818 7.75924 6.49262 7.58127 6.48932 7.39474C6.48603 7.20821 6.55527 7.02769 6.68245 6.8912L11.4825 2.0912C11.6175 1.95637 11.8005 1.88064 11.9913 1.88064C12.1821 1.88064 12.3651 1.95637 12.5001 2.0912L17.3001 6.8912C17.4349 7.0262 17.5106 7.2092 17.5106 7.4C17.5106 7.5908 17.4349 7.7738 17.3001 7.9088V7.9088Z" fill="#F7F7F7"/>
</svg>
