<svg width="24" height="24" viewBox="0 0 24 24" fill="none" xmlns="http://www.w3.org/2000/svg">
<path d="M19.948 19.9301H4.05406C3.86984 19.9295 3.68897 19.8809 3.52929 19.789C3.36961 19.6971 3.23665 19.5652 3.14353 19.4063C3.05006 19.247 3.00054 19.0657 3 18.8811C2.99947 18.6964 3.04796 18.5149 3.14051 18.3551L11.0923 4.59474C11.184 4.43505 11.3163 4.30241 11.4757 4.21025C11.6352 4.11809 11.8161 4.06967 12.0003 4.0699C12.3749 4.0699 12.7238 4.27107 12.9103 4.59525L20.8404 18.3208C20.9398 18.4801 20.9948 18.663 20.9996 18.8507C21.0045 19.0384 20.959 19.224 20.868 19.3881C20.7769 19.5523 20.6436 19.6892 20.4819 19.7845C20.3201 19.8798 20.1358 19.93 19.948 19.9301V19.9301ZM11.9736 5.09891H11.965L4.01474 18.8572L4.05406 18.9223H19.948C19.9702 18.9223 19.9919 18.9006 19.9919 18.8789C19.9884 18.8734 19.9707 18.8305 19.9672 18.8249L12.0366 5.09891H11.9736Z" fill="#F7F7F7"/>
<path d="M11.5103 9.75592V14.1427C11.5165 14.2903 11.5795 14.4298 11.6861 14.5321C11.7927 14.6343 11.9347 14.6914 12.0825 14.6914C12.2302 14.6914 12.3723 14.6343 12.4789 14.5321C12.5855 14.4298 12.6485 14.2903 12.6547 14.1427V9.75592C12.6546 9.60401 12.5943 9.45833 12.4871 9.35072C12.3799 9.24312 12.2344 9.18234 12.0825 9.18167C11.7684 9.18167 11.5103 9.44031 11.5103 9.75592V9.75592Z" fill="#F7F7F7"/>
<path d="M12.083 15.4783C11.7684 15.4783 11.5107 15.7334 11.5107 16.049V16.4327C11.5118 16.584 11.5725 16.7287 11.6796 16.8356C11.7867 16.9424 11.9317 17.0027 12.083 17.0034C12.3986 17.0034 12.6552 16.7447 12.6552 16.4327V16.049C12.6552 15.7334 12.3981 15.4783 12.083 15.4783Z" fill="#F7F7F7"/>
</svg>
