<svg width="25" height="24" viewBox="0 0 25 24" fill="none" xmlns="http://www.w3.org/2000/svg">
<path d="M8.54276 13.2857C8.88375 13.2857 9.21078 13.1503 9.4519 12.9091C9.69301 12.668 9.82847 12.341 9.82847 12C9.82847 11.659 9.69301 11.332 9.4519 11.0909C9.21078 10.8497 8.88375 10.7143 8.54276 10.7143C8.20177 10.7143 7.87474 10.8497 7.63362 11.0909C7.3925 11.332 7.25705 11.659 7.25705 12C7.25705 12.341 7.3925 12.668 7.63362 12.9091C7.87474 13.1503 8.20177 13.2857 8.54276 13.2857ZM9.82847 15.8571C9.82847 16.1981 9.69301 16.5252 9.4519 16.7663C9.21078 17.0074 8.88375 17.1429 8.54276 17.1429C8.20177 17.1429 7.87474 17.0074 7.63362 16.7663C7.3925 16.5252 7.25705 16.1981 7.25705 15.8571C7.25705 15.5162 7.3925 15.1891 7.63362 14.948C7.87474 14.7069 8.20177 14.5714 8.54276 14.5714C8.88375 14.5714 9.21078 14.7069 9.4519 14.948C9.69301 15.1891 9.82847 15.5162 9.82847 15.8571V15.8571ZM12.3999 13.2857C12.7409 13.2857 13.0679 13.1503 13.309 12.9091C13.5502 12.668 13.6856 12.341 13.6856 12C13.6856 11.659 13.5502 11.332 13.309 11.0909C13.0679 10.8497 12.7409 10.7143 12.3999 10.7143C12.0589 10.7143 11.7319 10.8497 11.4908 11.0909C11.2496 11.332 11.1142 11.659 11.1142 12C11.1142 12.341 11.2496 12.668 11.4908 12.9091C11.7319 13.1503 12.0589 13.2857 12.3999 13.2857V13.2857ZM13.6856 15.8571C13.6856 16.1981 13.5502 16.5252 13.309 16.7663C13.0679 17.0074 12.7409 17.1429 12.3999 17.1429C12.0589 17.1429 11.7319 17.0074 11.4908 16.7663C11.2496 16.5252 11.1142 16.1981 11.1142 15.8571C11.1142 15.5162 11.2496 15.1891 11.4908 14.948C11.7319 14.7069 12.0589 14.5714 12.3999 14.5714C12.7409 14.5714 13.0679 14.7069 13.309 14.948C13.5502 15.1891 13.6856 15.5162 13.6856 15.8571V15.8571ZM16.257 13.2857C16.598 13.2857 16.9251 13.1503 17.1662 12.9091C17.4073 12.668 17.5428 12.341 17.5428 12C17.5428 11.659 17.4073 11.332 17.1662 11.0909C16.9251 10.8497 16.598 10.7143 16.257 10.7143C15.9161 10.7143 15.589 10.8497 15.3479 11.0909C15.1068 11.332 14.9713 11.659 14.9713 12C14.9713 12.341 15.1068 12.668 15.3479 12.9091C15.589 13.1503 15.9161 13.2857 16.257 13.2857V13.2857ZM21.3999 6.21429C21.3999 5.3618 21.0613 4.54424 20.4585 3.94144C19.8557 3.33865 19.0381 3 18.1856 3H6.61419C5.76171 3 4.94414 3.33865 4.34134 3.94144C3.73855 4.54424 3.3999 5.3618 3.3999 6.21429V17.7857C3.3999 18.6382 3.73855 19.4558 4.34134 20.0586C4.94414 20.6614 5.76171 21 6.61419 21H18.1856C19.0381 21 19.8557 20.6614 20.4585 20.0586C21.0613 19.4558 21.3999 18.6382 21.3999 17.7857V6.21429ZM4.68562 8.14286H20.1142V17.7857C20.1142 18.2972 19.911 18.7877 19.5493 19.1494C19.1876 19.5111 18.6971 19.7143 18.1856 19.7143H6.61419C6.1027 19.7143 5.61216 19.5111 5.25048 19.1494C4.8888 18.7877 4.68562 18.2972 4.68562 17.7857V8.14286ZM6.61419 4.28571H18.1856C18.6971 4.28571 19.1876 4.4889 19.5493 4.85058C19.911 5.21226 20.1142 5.7028 20.1142 6.21429V6.85714H4.68562V6.21429C4.68562 5.7028 4.8888 5.21226 5.25048 4.85058C5.61216 4.4889 6.1027 4.28571 6.61419 4.28571V4.28571Z" fill="#F7F7F7"/>
</svg>
