<svg width="24" height="10" viewBox="0 0 24 10" fill="none" xmlns="http://www.w3.org/2000/svg">
<path fill-rule="evenodd" clip-rule="evenodd" d="M6.69995 2.0912C6.83495 1.95636 7.01795 1.88063 7.20875 1.88063C7.39955 1.88063 7.58255 1.95636 7.71755 2.0912L12.0087 6.3824L16.2999 2.0912C16.4364 1.96402 16.617 1.89478 16.8035 1.89807C16.99 1.90136 17.168 1.97692 17.2999 2.10884C17.4318 2.24076 17.5074 2.41873 17.5107 2.60526C17.514 2.79178 17.4447 2.97231 17.3175 3.1088L12.5175 7.9088C12.3825 8.04363 12.1995 8.11936 12.0087 8.11936C11.8179 8.11936 11.6349 8.04363 11.4999 7.9088L6.69995 3.1088C6.56511 2.9738 6.48938 2.7908 6.48938 2.6C6.48938 2.4092 6.56511 2.2262 6.69995 2.0912V2.0912Z" fill="#F7F7F7"/>
</svg>
