<svg width="25" height="24" viewBox="0 0 25 24" fill="none" xmlns="http://www.w3.org/2000/svg">
<path d="M12.8753 4C17.2938 4 20.8757 7.58186 20.8757 12.0004C20.8757 16.4181 17.2938 20 12.8753 20C8.45674 20 4.87488 16.4181 4.87488 12.0004C4.87488 7.58186 8.45674 4 12.8753 4ZM12.8753 5.19982C11.9761 5.19007 11.0838 5.35876 10.2502 5.69612C9.41666 6.03349 8.65825 6.53284 8.01894 7.16526C7.37962 7.79768 6.87207 8.55062 6.52569 9.38051C6.1793 10.2104 6.00095 11.1007 6.00095 12C6.00095 12.8993 6.1793 13.7896 6.52569 14.6195C6.87207 15.4494 7.37962 16.2023 8.01894 16.8347C8.65825 17.4672 9.41666 17.9665 10.2502 18.3039C11.0838 18.6412 11.9761 18.8099 12.8753 18.8002C14.6606 18.7728 16.3636 18.0443 17.6164 16.7721C18.8693 15.4999 19.5716 13.786 19.5716 12.0004C19.5716 10.2148 18.8693 8.50091 17.6164 7.22868C16.3636 5.95645 14.6606 5.22801 12.8753 5.20062V5.19982ZM12.8721 10.799C13.0172 10.7988 13.1574 10.8512 13.2669 10.9465C13.3763 11.0418 13.4475 11.1735 13.4672 11.3173L13.4728 11.3989L13.4752 15.7998C13.4751 15.9518 13.4174 16.0981 13.3136 16.2092C13.2099 16.3203 13.0678 16.3878 12.9162 16.3982C12.7645 16.4085 12.6146 16.3609 12.4967 16.265C12.3788 16.1691 12.3017 16.032 12.281 15.8814L12.2754 15.8006L12.273 11.3997C12.273 11.2406 12.3362 11.088 12.4487 10.9755C12.5612 10.863 12.7138 10.7998 12.8729 10.7998L12.8721 10.799ZM12.8753 8.0026C12.9823 7.99921 13.0889 8.01736 13.1887 8.05598C13.2886 8.09459 13.3797 8.15288 13.4566 8.22738C13.5335 8.30188 13.5946 8.39107 13.6364 8.48966C13.6781 8.58824 13.6996 8.69422 13.6996 8.80128C13.6996 8.90834 13.6781 9.01432 13.6364 9.1129C13.5946 9.21149 13.5335 9.30068 13.4566 9.37518C13.3797 9.44968 13.2886 9.50797 13.1887 9.54658C13.0889 9.58519 12.9823 9.60335 12.8753 9.59996C12.6678 9.59339 12.4711 9.50637 12.3267 9.35731C12.1822 9.20824 12.1015 9.00883 12.1015 8.80128C12.1015 8.59373 12.1822 8.39432 12.3267 8.24525C12.4711 8.09619 12.6678 8.00917 12.8753 8.0026V8.0026Z" fill="#F7F7F7"/>
</svg>
