<svg width="24" height="24" viewBox="0 0 24 24" fill="none" xmlns="http://www.w3.org/2000/svg">
<path d="M13.9635 15.024C12.6157 16.1008 10.9066 16.6207 9.18745 16.4768C7.46825 16.3329 5.8694 15.5362 4.71925 14.2504C3.56911 12.9645 2.95497 11.287 3.00298 9.56249C3.05099 7.83795 3.7575 6.19725 4.9774 4.97735C6.1973 3.75745 7.838 3.05095 9.56253 3.00294C11.2871 2.95493 12.9645 3.56906 14.2504 4.71921C15.5363 5.86935 16.333 7.46821 16.4769 9.1874C16.6207 10.9066 16.1009 12.6156 15.024 13.9635L20.781 19.719C20.9219 19.8598 21.001 20.0508 21.001 20.25C21.001 20.4492 20.9219 20.6402 20.781 20.781C20.6402 20.9218 20.4492 21.0009 20.25 21.0009C20.0509 21.0009 19.8599 20.9218 19.719 20.781L13.965 15.024H13.9635ZM15 9.75C15 9.06056 14.8642 8.37787 14.6004 7.74091C14.3366 7.10395 13.9499 6.5252 13.4624 6.03769C12.9748 5.55018 12.3961 5.16347 11.7591 4.89963C11.1222 4.63579 10.4395 4.5 9.75004 4.5C9.0606 4.5 8.37792 4.63579 7.74096 4.89963C7.104 5.16347 6.52524 5.55018 6.03773 6.03769C5.55023 6.5252 5.16351 7.10395 4.89968 7.74091C4.63584 8.37787 4.50004 9.06056 4.50004 9.75C4.50004 11.1424 5.05317 12.4777 6.03773 13.4623C7.0223 14.4469 8.35766 15 9.75004 15C11.1424 15 12.4778 14.4469 13.4624 13.4623C14.4469 12.4777 15 11.1424 15 9.75Z" fill="#F7F7F7"/>
</svg>
